<svg width="23" height="23" viewBox="0 0 23 23" fill="none" xmlns="http://www.w3.org/2000/svg">
<path d="M15.3222 6.38881C15.8333 6.77215 16.2166 7.15548 16.6 7.66659L20.1778 4.08881C19.7944 3.5777 19.4111 3.19437 18.9 2.81104L15.3222 6.38881Z" fill="white"/>
<path d="M22.4778 15.0777L14.8111 11.8833C14.8111 12.5222 14.5555 13.1611 14.1722 13.5444L21.8389 16.7389C22.0944 16.2277 22.35 15.5889 22.4778 15.0777Z" fill="white"/>
<path d="M22.9889 10.6055H17.8777C17.8777 10.861 17.8777 11.2444 17.8777 11.4999C17.8777 11.7555 17.8777 12.1388 17.8777 12.3944H22.9889C22.9889 12.1388 22.9889 11.7555 22.9889 11.4999C22.9889 11.2444 22.9889 10.861 22.9889 10.6055Z" fill="white"/>
<path d="M10.5944 5.23889C10.85 5.23889 11.2333 5.23889 11.4889 5.23889C11.7444 5.23889 12.1278 5.23889 12.3833 5.23889V0C12.1278 0 11.7444 0 11.4889 0C11.2333 0 10.85 0 10.5944 0V5.11111V5.23889Z" fill="white"/>
<path d="M1.26664 16.7389L8.9333 13.5444C8.54997 13.0333 8.29441 12.5222 8.29441 11.8833L0.627747 15.0777C0.755524 15.7166 1.01108 16.2277 1.26664 16.7389Z" fill="white"/>
<path d="M16.7278 1.2779C16.2166 1.02234 15.5777 0.766786 15.0666 0.51123L11.8722 8.1779C12.5111 8.1779 13.15 8.43345 13.5333 8.81679L16.7278 1.15012V1.2779Z" fill="white"/>
<path d="M22.4778 7.92234C22.35 7.28345 22.0944 6.77234 21.8389 6.26123L14.1722 9.45567C14.5555 9.96679 14.8111 10.4779 14.8111 11.1168L22.4778 7.92234Z" fill="white"/>
<path d="M15.0666 22.4889C15.7055 22.3611 16.2166 22.1056 16.7278 21.85L13.5333 14.1833C13.0222 14.5667 12.5111 14.8222 11.8722 14.95L15.0666 22.6167V22.4889Z" fill="white"/>
<path d="M5.22775 12.3944C5.22775 12.1388 5.22775 11.7555 5.22775 11.4999C5.22775 11.2444 5.22775 10.861 5.22775 10.6055H0.116638C0.116638 10.861 0.116638 11.2444 0.116638 11.4999C0.116638 11.7555 0.116638 12.1388 0.116638 12.3944H5.22775Z" fill="white"/>
<path d="M9.06108 9.45567L1.39441 6.26123C1.13886 6.77234 0.883301 7.41123 0.755524 7.92234L8.42219 11.1168C8.42219 10.4779 8.80552 9.83901 9.06108 9.45567Z" fill="white"/>
<path d="M7.78332 16.611C7.27221 16.2277 6.88888 15.8444 6.50555 15.3333L2.92776 18.911C3.3111 19.4221 3.69443 19.8055 4.20554 20.1888L7.78332 16.611Z" fill="white"/>
<path d="M16.6 15.3333C16.2166 15.8444 15.8333 16.2277 15.3222 16.611L18.9 20.1888C19.4111 19.8055 19.7944 19.4221 20.1778 18.911L16.6 15.3333Z" fill="white"/>
<path d="M12.5111 17.7612C12.2555 17.7612 11.8722 17.7612 11.6166 17.7612C11.3611 17.7612 10.9778 17.7612 10.7222 17.7612V22.8723C10.9778 22.8723 11.3611 22.8723 11.6166 22.8723C11.8722 22.8723 12.2555 22.8723 12.5111 22.8723V17.7612Z" fill="white"/>
<path d="M8.03886 22.4889L11.2333 14.8222C10.5944 14.8222 9.95552 14.4389 9.57219 14.1833L6.37775 21.85C6.88886 22.1056 7.52775 22.3611 8.03886 22.6167V22.4889Z" fill="white"/>
<path d="M6.37776 7.66659C6.76109 7.15548 7.14443 6.77215 7.65554 6.38881L4.07777 2.81104C3.56665 3.19437 3.18332 3.5777 2.79999 4.08881L6.37776 7.66659Z" fill="white"/>
<path d="M8.03886 0.51123C7.39997 0.639008 6.88886 0.894564 6.37775 1.15012L9.57219 8.81679C10.0833 8.43345 10.5944 8.1779 11.2333 8.1779L8.03886 0.51123Z" fill="white"/>
</svg>


 <svg
            width="100"
            height="100"
            viewBox="0 0 500 500"
            xmlns="http://www.w3.org/2000/svg"
          >
            <g>
              <path
                d="m464.02,47.99l11.44,11.44c1.82-2.13,3.39-4.48,4.68-6.99l-24.27-10.06c1.2-1.48,1.99-3.31,2.2-5.31l24.27,10.05c.85-2.63,1.42-5.39,1.64-8.25h-16.18c.13-.94.23-1.89.23-2.87s-.09-1.94-.23-2.88c0,0,0,0,0,0h16.18c-.22-2.86-.79-5.62-1.64-8.25l-24.27,10.05c-.21-2-1-3.82-2.2-5.31l24.27-10.05c-1.29-2.52-2.86-4.86-4.68-6.99l-11.44,11.44c-1.15-1.54-2.52-2.91-4.06-4.06l11.44-11.44c-2.13-1.82-4.48-3.39-6.99-4.68l-10.05,24.27c-1.48-1.2-3.31-1.99-5.31-2.2l10.05-24.26c-2.63-.85-5.39-1.42-8.25-1.64v16.18s0,0,0,0c-.94-.14-1.9-.23-2.88-.23s-1.93.09-2.87.23V0c-2.86.23-5.62.79-8.25,1.64l10.05,24.26c-2,.21-3.83,1-5.31,2.2l-10.05-24.27c-2.52,1.29-4.86,2.86-6.99,4.68l11.44,11.44c-1.54,1.15-2.91,2.52-4.07,4.07,0,0,0,0,0,0l-11.44-11.44c-1.82,2.13-3.39,4.48-4.68,6.99l24.27,10.05c-1.2,1.48-1.99,3.31-2.2,5.31l-24.26-10.05c-.85,2.63-1.42,5.39-1.64,8.25h16.18c-.13.94-.23,1.89-.23,2.87s.09,1.93.23,2.88h0s-16.18,0-16.18,0c.23,2.86.79,5.62,1.64,8.25l24.26-10.05c.21,2,1,3.83,2.2,5.31l-24.27,10.05c1.29,2.51,2.86,4.86,4.67,6.99l11.44-11.44c1.15,1.54,2.52,2.91,4.06,4.06,0,0,0,0,0,0l-11.44,11.44c2.13,1.82,4.48,3.39,6.99,4.68l10.05-24.27c1.48,1.2,3.31,1.99,5.31,2.2l-10.05,24.27c2.63.85,5.39,1.42,8.25,1.64v-16.18c.94.14,1.89.23,2.87.23s1.94-.09,2.88-.23c0,0,0,0,0,0v16.18c2.86-.23,5.62-.79,8.25-1.64l-10.05-24.26c2-.21,3.83-1,5.31-2.2l10.05,24.27c2.52-1.29,4.86-2.86,6.99-4.68l-11.44-11.44s0,0,0,0c1.54-1.15,2.91-2.52,4.07-4.06Z"
              ></path>
            </g>
          </svg>